<svg width="32" height="32" viewBox="0 0 32 32" fill="none" xmlns="http://www.w3.org/2000/svg">
<g filter="url(#filter0_b_2012_290)">
<circle cx="16" cy="16" r="16" fill="white"/>
<circle cx="16" cy="16" r="15.5" stroke="white" stroke-opacity="0.3"/>
</g>
<path d="M18.7692 9.99976H13.2308C12.3742 10.0007 11.553 10.3414 10.9473 10.947C10.3416 11.5527 10.0009 12.374 10 13.2305V18.769C10.0009 19.6256 10.3416 20.4468 10.9473 21.0525C11.553 21.6582 12.3742 21.9988 13.2308 21.9998H18.7692C19.6258 21.9988 20.447 21.6582 21.0527 21.0525C21.6584 20.4468 21.9991 19.6256 22 18.769V13.2305C21.9991 12.374 21.6584 11.5527 21.0527 10.947C20.447 10.3414 19.6258 10.0007 18.7692 9.99976ZM16 18.769C15.4523 18.769 14.9169 18.6066 14.4615 18.3023C14.0061 17.998 13.6512 17.5655 13.4416 17.0595C13.232 16.5535 13.1771 15.9967 13.284 15.4595C13.3908 14.9223 13.6546 14.4289 14.0419 14.0416C14.4291 13.6543 14.9226 13.3906 15.4597 13.2837C15.9969 13.1769 16.5537 13.2317 17.0597 13.4413C17.5657 13.6509 17.9982 14.0059 18.3025 14.4613C18.6068 14.9167 18.7692 15.4521 18.7692 15.9998C18.7685 16.734 18.4765 17.4379 17.9573 17.9571C17.4381 18.4762 16.7342 18.7682 16 18.769ZM19.4615 13.2305C19.3246 13.2305 19.1908 13.1899 19.0769 13.1139C18.9631 13.0378 18.8743 12.9297 18.8219 12.8032C18.7695 12.6766 18.7558 12.5374 18.7825 12.4032C18.8092 12.2689 18.8752 12.1455 18.972 12.0487C19.0688 11.9519 19.1922 11.8859 19.3265 11.8592C19.4608 11.8325 19.6 11.8462 19.7265 11.8986C19.853 11.951 19.9611 12.0397 20.0372 12.1536C20.1132 12.2674 20.1538 12.4013 20.1538 12.5382C20.1538 12.7218 20.0809 12.8979 19.9511 13.0278C19.8212 13.1576 19.6451 13.2305 19.4615 13.2305ZM17.8462 15.9998C17.8462 16.3649 17.7379 16.7218 17.535 17.0254C17.3322 17.329 17.0438 17.5656 16.7065 17.7054C16.3692 17.8451 15.998 17.8817 15.6398 17.8104C15.2817 17.7392 14.9528 17.5634 14.6946 17.3052C14.4364 17.047 14.2606 16.718 14.1893 16.3599C14.1181 16.0018 14.1546 15.6306 14.2944 15.2933C14.4341 14.9559 14.6707 14.6676 14.9743 14.4647C15.2779 14.2619 15.6349 14.1536 16 14.1536C16.4896 14.1536 16.9592 14.3481 17.3054 14.6943C17.6516 15.0405 17.8462 15.5101 17.8462 15.9998Z" fill="#171B26"/>
<defs>
<filter id="filter0_b_2012_290" x="-10" y="-10" width="52" height="52" filterUnits="userSpaceOnUse" color-interpolation-filters="sRGB">
<feFlood flood-opacity="0" result="BackgroundImageFix"/>
<feGaussianBlur in="BackgroundImageFix" stdDeviation="5"/>
<feComposite in2="SourceAlpha" operator="in" result="effect1_backgroundBlur_2012_290"/>
<feBlend mode="normal" in="SourceGraphic" in2="effect1_backgroundBlur_2012_290" result="shape"/>
</filter>
</defs>
</svg>
