<svg width="32" height="32" viewBox="0 0 32 32" fill="none" xmlns="http://www.w3.org/2000/svg">
<g filter="url(#filter0_b_2012_294)">
<circle cx="16" cy="16" r="16" fill="white"/>
<circle cx="16" cy="16" r="15.5" stroke="white" stroke-opacity="0.3"/>
</g>
<path d="M22.7882 13.0956L21.0632 14.8206C20.7147 18.8602 17.308 21.9998 13.2309 21.9998C12.3932 21.9998 11.7026 21.8671 11.1782 21.6052C10.7553 21.3934 10.5822 21.1667 10.5389 21.1021C10.5004 21.0442 10.4754 20.9784 10.4658 20.9095C10.4562 20.8406 10.4624 20.7705 10.4837 20.7043C10.5051 20.6381 10.5411 20.5776 10.5891 20.5273C10.6372 20.477 10.6959 20.4382 10.7611 20.4138C10.7761 20.4081 12.1595 19.8767 13.0382 18.8654C12.5509 18.4647 12.1255 17.9943 11.7759 17.4692C11.0605 16.4071 10.2597 14.5621 10.5066 11.805C10.5145 11.7174 10.5472 11.6338 10.6009 11.5642C10.6546 11.4945 10.7271 11.4417 10.8098 11.4119C10.8926 11.382 10.9821 11.3765 11.0679 11.3958C11.1537 11.4152 11.2322 11.4587 11.2941 11.5211C11.3143 11.5413 13.2141 13.4308 15.5368 14.0434V13.6921C15.536 13.3237 15.6088 12.9588 15.7511 12.6189C15.8934 12.2791 16.1022 11.9712 16.3653 11.7133C16.6208 11.4581 16.9249 11.2567 17.2595 11.121C17.5941 10.9852 17.9525 10.9179 18.3136 10.9229C18.7979 10.9276 19.2728 11.0577 19.692 11.3003C20.1113 11.5429 20.4606 11.8899 20.7061 12.3075H22.4616C22.553 12.3074 22.6423 12.3344 22.7183 12.3852C22.7942 12.4359 22.8534 12.508 22.8884 12.5923C22.9234 12.6767 22.9325 12.7696 22.9147 12.8592C22.8968 12.9487 22.8528 13.031 22.7882 13.0956Z" fill="#171B26"/>
<defs>
<filter id="filter0_b_2012_294" x="-10" y="-10" width="52" height="52" filterUnits="userSpaceOnUse" color-interpolation-filters="sRGB">
<feFlood flood-opacity="0" result="BackgroundImageFix"/>
<feGaussianBlur in="BackgroundImageFix" stdDeviation="5"/>
<feComposite in2="SourceAlpha" operator="in" result="effect1_backgroundBlur_2012_294"/>
<feBlend mode="normal" in="SourceGraphic" in2="effect1_backgroundBlur_2012_294" result="shape"/>
</filter>
</defs>
</svg>
