<svg width="56" height="56" viewBox="0 0 56 56" fill="none" xmlns="http://www.w3.org/2000/svg">
<rect x="0.5" y="0.5" width="55" height="55" rx="27.5" stroke="#7E8492"/>
<path d="M26.0454 18.5369C26.5429 16.4877 29.4571 16.4877 29.9546 18.5369C30.276 19.8606 31.7925 20.4888 32.9558 19.78C34.7565 18.6828 36.8172 20.7435 35.72 22.5442C35.0112 23.7075 35.6394 25.224 36.9631 25.5454C39.0123 26.0429 39.0123 28.9571 36.9631 29.4546C35.6394 29.776 35.0112 31.2925 35.72 32.4558C36.8172 34.2565 34.7565 36.3172 32.9558 35.22C31.7925 34.5112 30.276 35.1394 29.9546 36.4631C29.4571 38.5123 26.5429 38.5123 26.0454 36.4631C25.724 35.1394 24.2075 34.5112 23.0442 35.22C21.2435 36.3172 19.1828 34.2565 20.28 32.4558C20.9888 31.2925 20.3606 29.776 19.0369 29.4546C16.9877 28.9571 16.9877 26.0429 19.0369 25.5454C20.3606 25.224 20.9888 23.7075 20.28 22.5442C19.1828 20.7435 21.2435 18.6828 23.0442 19.78C24.2075 20.4888 25.724 19.8606 26.0454 18.5369Z" stroke="white" stroke-width="2" stroke-linecap="round" stroke-linejoin="round"/>
<path d="M31.5 27.5C31.5 29.433 29.933 31 28 31C26.067 31 24.5 29.433 24.5 27.5C24.5 25.567 26.067 24 28 24C29.933 24 31.5 25.567 31.5 27.5Z" stroke="white" stroke-width="2" stroke-linecap="round" stroke-linejoin="round"/>
</svg>
