<svg width="56" height="56" viewBox="0 0 56 56" fill="none" xmlns="http://www.w3.org/2000/svg">
<rect x="0.5" y="0.5" width="55" height="55" rx="27.5" stroke="#7E8492"/>
<path d="M25.2068 28.6262C24.8163 28.2357 24.1831 28.2357 23.7926 28.6262C23.402 29.0168 23.402 29.6499 23.7926 30.0404L25.2068 28.6262ZM26.833 31.6667L26.1259 32.3738C26.5164 32.7643 27.1496 32.7643 27.5401 32.3738L26.833 31.6667ZM32.2068 27.7071C32.5973 27.3166 32.5973 26.6834 32.2068 26.2929C31.8163 25.9024 31.1831 25.9024 30.7926 26.2929L32.2068 27.7071ZM35.1663 21.1667V35.1667H37.1663V21.1667H35.1663ZM33.833 36.5H22.1663V38.5H33.833V36.5ZM20.833 35.1667V21.1667H18.833V35.1667H20.833ZM22.1663 19.8333H24.4997V17.8333H22.1663V19.8333ZM31.4997 19.8333H33.833V17.8333H31.4997V19.8333ZM22.1663 36.5C21.43 36.5 20.833 35.903 20.833 35.1667H18.833C18.833 37.0076 20.3254 38.5 22.1663 38.5V36.5ZM35.1663 35.1667C35.1663 35.903 34.5694 36.5 33.833 36.5V38.5C35.674 38.5 37.1663 37.0076 37.1663 35.1667H35.1663ZM37.1663 21.1667C37.1663 19.3257 35.674 17.8333 33.833 17.8333V19.8333C34.5694 19.8333 35.1663 20.4303 35.1663 21.1667H37.1663ZM20.833 21.1667C20.833 20.4303 21.43 19.8333 22.1663 19.8333V17.8333C20.3254 17.8333 18.833 19.3257 18.833 21.1667H20.833ZM23.7926 30.0404L26.1259 32.3738L27.5401 30.9596L25.2068 28.6262L23.7926 30.0404ZM27.5401 32.3738L32.2068 27.7071L30.7926 26.2929L26.1259 30.9596L27.5401 32.3738ZM26.833 17.5H29.1663V15.5H26.833V17.5ZM29.1663 20.1667H26.833V22.1667H29.1663V20.1667ZM26.833 20.1667C26.0966 20.1667 25.4997 19.5697 25.4997 18.8333H23.4997C23.4997 20.6743 24.9921 22.1667 26.833 22.1667V20.1667ZM30.4997 18.8333C30.4997 19.5697 29.9027 20.1667 29.1663 20.1667V22.1667C31.0073 22.1667 32.4997 20.6743 32.4997 18.8333H30.4997ZM29.1663 17.5C29.9027 17.5 30.4997 18.097 30.4997 18.8333H32.4997C32.4997 16.9924 31.0073 15.5 29.1663 15.5V17.5ZM26.833 15.5C24.9921 15.5 23.4997 16.9924 23.4997 18.8333H25.4997C25.4997 18.097 26.0966 17.5 26.833 17.5V15.5Z" fill="white"/>
</svg>
