<svg width="46" height="47" viewBox="0 0 46 47" fill="none" xmlns="http://www.w3.org/2000/svg">
<rect x="0.0605469" y="0.79248" width="45.9176" height="45.9176" rx="6.04179" fill="#BCBEFC"/>
<path fill-rule="evenodd" clip-rule="evenodd" d="M21.7176 15.2116C21.0426 15.2116 20.4683 15.6806 20.3071 16.3128H25.7273C25.5661 15.6806 24.9919 15.2116 24.3169 15.2116H21.7176ZM27.2592 16.3129H29.254C31.3697 16.3129 33.0924 18.0566 33.0924 20.1979C33.0924 20.1979 33.032 21.1045 33.0118 22.3669C33.0098 22.4668 32.9615 22.5647 32.8819 22.6238C32.3973 22.9817 31.954 23.2774 31.9137 23.2978C30.2413 24.4195 28.2979 25.2088 26.2275 25.6014C26.0925 25.6279 25.9596 25.5575 25.891 25.4372C25.3107 24.4318 24.2267 23.7771 23.0177 23.7771C21.8168 23.7771 20.7227 24.4246 20.1253 25.4311C20.0558 25.5494 19.9248 25.6177 19.7908 25.5922C17.7376 25.1986 15.7942 24.4103 14.1319 23.308L13.1647 22.635C13.0841 22.584 13.0337 22.4923 13.0337 22.3903C13.0035 21.8703 12.9531 20.1979 12.9531 20.1979C12.9531 18.0566 14.6759 16.3129 16.7916 16.3129H18.7763C18.9677 14.8343 20.2069 13.682 21.7181 13.682H24.3174C25.8286 13.682 27.0678 14.8343 27.2592 16.3129ZM32.7482 24.5725L32.7079 24.5929C30.6728 25.9593 28.2247 26.8668 25.6556 27.2441C25.2929 27.2951 24.9302 27.0605 24.8295 26.6934C24.6078 25.8573 23.8925 25.3066 23.0362 25.3066H23.0261H23.006C22.1496 25.3066 21.4343 25.8573 21.2127 26.6934C21.1119 27.0605 20.7492 27.2951 20.3865 27.2441C17.8175 26.8668 15.3693 25.9593 13.3343 24.5929C13.3242 24.5827 13.2234 24.5215 13.1428 24.5725C13.0522 24.6234 13.0522 24.7458 13.0522 24.7458L13.1227 29.9463C13.1227 32.0877 14.8354 33.8212 16.9511 33.8212H29.081C31.1967 33.8212 32.9094 32.0877 32.9094 29.9463L32.99 24.7458C32.99 24.7458 32.99 24.6234 32.8993 24.5725C32.8489 24.5419 32.7885 24.5521 32.7482 24.5725ZM23.7712 28.845C23.7712 29.2733 23.4387 29.6098 23.0156 29.6098C22.6025 29.6098 22.26 29.2733 22.26 28.845V27.5296C22.26 27.1115 22.6025 26.7648 23.0156 26.7648C23.4387 26.7648 23.7712 27.1115 23.7712 27.5296V28.845Z" fill="white"/>
</svg>
