<svg width="41" height="41" viewBox="0 0 41 41" fill="none" xmlns="http://www.w3.org/2000/svg">
<rect x="0.142578" y="0.522461" width="39.9122" height="39.9122" rx="7.70552" fill="white" fill-opacity="0.35"/>
<path fill-rule="evenodd" clip-rule="evenodd" d="M15.6627 10.9766H24.5375C27.7694 10.9766 29.594 12.8097 29.6035 16.0416V24.9173C29.6035 28.1483 27.7694 29.9824 24.5375 29.9824H15.6627C12.4308 29.9824 10.5977 28.1483 10.5977 24.9173V16.0416C10.5977 12.8097 12.4308 10.9766 15.6627 10.9766ZM20.1475 26.0481C20.5571 26.0481 20.8982 25.744 20.9363 25.3354V15.6519C20.9743 15.3573 20.8327 15.0618 20.5761 14.9012C20.3091 14.7396 19.986 14.7396 19.7303 14.9012C19.4728 15.0618 19.3312 15.3573 19.3588 15.6519V25.3354C19.4072 25.744 19.7484 26.0481 20.1475 26.0481ZM24.5199 26.0481C24.919 26.0481 25.2601 25.744 25.3086 25.3354V22.2184C25.3362 21.9134 25.1946 21.6292 24.937 21.4677C24.6814 21.3062 24.3583 21.3062 24.0922 21.4677C23.8347 21.6292 23.6931 21.9134 23.7311 22.2184V25.3354C23.7691 25.744 24.1103 26.0481 24.5199 26.0481ZM16.5081 25.3354C16.47 25.744 16.1289 26.0481 15.7193 26.0481C15.3107 26.0481 14.9686 25.744 14.9315 25.3354V18.7689C14.903 18.4734 15.0446 18.1797 15.3021 18.0182C15.5578 17.8566 15.8818 17.8566 16.1384 18.0182C16.394 18.1797 16.5375 18.4734 16.5081 18.7689V25.3354Z" fill="white"/>
</svg>
