<svg width="20" height="20" viewBox="0 0 20 20" fill="none" xmlns="http://www.w3.org/2000/svg">
<path fill-rule="evenodd" clip-rule="evenodd" d="M3.0893 10.6857C2.7565 10.6399 2.5 10.3504 2.5 10.0001C2.5 9.61795 2.80526 9.30816 3.18182 9.30816L15.1666 9.30816L10.8372 4.93222L10.7711 4.85475C10.5725 4.58429 10.5937 4.19984 10.8352 3.95368C11.101 3.6829 11.5327 3.68199 11.7995 3.95165L17.2898 9.50036C17.3225 9.53215 17.3521 9.56722 17.378 9.60504C17.5639 9.87525 17.5377 10.2501 17.2994 10.4908L11.7994 16.0484L11.7228 16.1152C11.4555 16.3156 11.0767 16.2925 10.8352 16.0463C10.5695 15.7755 10.5704 15.3374 10.8373 15.0677L15.1677 10.692L3.18182 10.692L3.0893 10.6857Z" fill="#3B3B3B"/>
</svg>
