<svg width="14" height="13" viewBox="0 0 14 13" fill="none" xmlns="http://www.w3.org/2000/svg">
<path d="M6.18625 0.727962C6.45699 -0.105284 7.63581 -0.105284 7.90655 0.727962L8.87389 3.70511C8.99496 4.07775 9.34222 4.33005 9.73404 4.33005H12.8644C13.7405 4.33005 14.1048 5.45117 13.396 5.96615L10.8635 7.80613C10.5465 8.03643 10.4139 8.44465 10.5349 8.81729L11.5023 11.7944C11.773 12.6277 10.8193 13.3206 10.1105 12.8056L7.578 10.9656C7.26102 10.7353 6.83179 10.7353 6.5148 10.9656L3.98229 12.8056C3.27349 13.3206 2.3198 12.6277 2.59054 11.7944L3.55787 8.81729C3.67895 8.44465 3.54631 8.03643 3.22932 7.80613L0.696812 5.96615C-0.0119897 5.45117 0.352286 4.33005 1.22841 4.33005H4.35877C4.75059 4.33005 5.09784 4.07775 5.21892 3.70511L6.18625 0.727962Z" fill="#FACC15"/>
</svg>
