<svg width="46" height="46" viewBox="0 0 46 46" fill="none" xmlns="http://www.w3.org/2000/svg">
<rect x="0.0488281" y="0.0629883" width="45.9176" height="45.9176" rx="6.04179" fill="#FF9C82"/>
<path fill-rule="evenodd" clip-rule="evenodd" d="M21.6996 14.4815C21.0246 14.4815 20.4504 14.9506 20.2892 15.5828H25.7093C25.5482 14.9506 24.9739 14.4815 24.2989 14.4815H21.6996ZM27.2416 15.5827H29.2364C31.3521 15.5827 33.0749 17.3264 33.0749 19.4678C33.0749 19.4678 33.0144 20.3744 32.9943 21.6367C32.9922 21.7367 32.9439 21.8346 32.8643 21.8937C32.3797 22.2516 31.9364 22.5473 31.8961 22.5677C30.2237 23.6894 28.2803 24.4787 26.21 24.8713C26.075 24.8978 25.942 24.8274 25.8735 24.7071C25.2932 23.7017 24.2091 23.047 23.0002 23.047C21.7993 23.047 20.7052 23.6945 20.1077 24.701C20.0382 24.8193 19.9072 24.8876 19.7732 24.8621C17.72 24.4685 15.7766 23.6802 14.1143 22.5779L13.1471 21.9049C13.0665 21.8539 13.0161 21.7622 13.0161 21.6602C12.9859 21.1402 12.9355 19.4678 12.9355 19.4678C12.9355 17.3264 14.6583 15.5827 16.774 15.5827H18.7587C18.9501 14.1042 20.1893 12.9519 21.7005 12.9519H24.2998C25.811 12.9519 27.0502 14.1042 27.2416 15.5827ZM32.733 23.8425L32.6927 23.8629C30.6576 25.2293 28.2094 26.1368 25.6404 26.5141C25.2777 26.5651 24.915 26.3306 24.8143 25.9635C24.5926 25.1273 23.8773 24.5767 23.021 24.5767H23.0109H22.9907C22.1344 24.5767 21.4191 25.1273 21.1974 25.9635C21.0967 26.3306 20.734 26.5651 20.3713 26.5141C17.8023 26.1368 15.3541 25.2293 13.319 23.8629C13.309 23.8527 13.2082 23.7915 13.1276 23.8425C13.0369 23.8935 13.0369 24.0158 13.0369 24.0158L13.1075 29.2163C13.1075 31.3577 14.8202 33.0912 16.9359 33.0912H29.0658C31.1815 33.0912 32.8942 31.3577 32.8942 29.2163L32.9748 24.0158C32.9748 24.0158 32.9748 23.8935 32.8841 23.8425C32.8337 23.8119 32.7733 23.8221 32.733 23.8425ZM23.7561 28.1151C23.7561 28.5434 23.4237 28.8799 23.0005 28.8799C22.5875 28.8799 22.2449 28.5434 22.2449 28.1151V26.7997C22.2449 26.3816 22.5875 26.0349 23.0005 26.0349C23.4237 26.0349 23.7561 26.3816 23.7561 26.7997V28.1151Z" fill="white"/>
</svg>
