<svg width="84" height="85" viewBox="0 0 84 85" fill="none" xmlns="http://www.w3.org/2000/svg">
<path d="M34.125 74.479C34.125 76.5676 34.9547 78.5706 36.4315 80.0475C37.9084 81.5243 39.9114 82.354 42 82.354C44.0886 82.354 46.0916 81.5243 47.5685 80.0475C49.0453 78.5706 49.875 76.5676 49.875 74.479V70.4785H34.125V74.479Z" fill="#F7F7F7"/>
<path d="M78.75 38.9785C77.9385 38.9819 77.1479 39.2359 76.4863 39.7058C75.8247 40.1756 75.3245 40.8385 75.054 41.6035H68.25V44.2285H75.054C75.2958 44.9073 75.7195 45.5066 76.2789 45.9608C76.8382 46.4151 77.5116 46.7069 78.2256 46.8043C78.9396 46.9017 79.6666 46.801 80.3271 46.5132C80.9877 46.2254 81.5565 45.7615 81.9713 45.1723C82.3861 44.5831 82.631 43.8912 82.6792 43.1723C82.7273 42.4533 82.577 41.7349 82.2445 41.0957C81.912 40.4564 81.4102 39.9208 80.7939 39.5474C80.1776 39.174 79.4706 38.9772 78.75 38.9785Z" fill="#F7F7F7"/>
<path d="M5.25067 38.9785C4.52812 38.9756 3.81868 39.1714 3.20003 39.5448C2.58138 39.9181 2.07738 40.4544 1.74323 41.0951C1.40907 41.7357 1.25765 42.456 1.30553 43.177C1.35342 43.8979 1.59877 44.5918 2.01471 45.1827C2.43066 45.7735 3.00116 46.2385 3.66375 46.5267C4.32634 46.8149 5.05546 46.9153 5.77127 46.8167C6.48708 46.7182 7.16198 46.4246 7.72206 45.9681C8.28215 45.5116 8.70582 44.9098 8.94668 44.2285H15.7507V41.6035H8.94668C8.67619 40.8385 8.17593 40.1757 7.51434 39.7058C6.85275 39.2359 6.06214 38.9819 5.25067 38.9785Z" fill="#F7F7F7"/>
<path d="M61.49 25.2827L66.3016 20.4724C67.1398 20.8725 68.0924 20.9634 68.9912 20.7291C69.8899 20.4948 70.6769 19.9503 71.213 19.192C71.7492 18.4336 72 17.5101 71.9211 16.5846C71.8423 15.6592 71.4388 14.7915 70.7821 14.1347C70.1253 13.478 69.2576 13.0745 68.3322 12.9957C67.4068 12.9168 66.4832 13.1676 65.7248 13.7038C64.9665 14.2399 64.422 15.0269 64.1877 15.9256C63.9534 16.8244 64.0443 17.777 64.4444 18.6152L59.6328 23.4268L61.49 25.2827Z" fill="#F7F7F7"/>
<path d="M22.5098 60.5496L17.6982 65.3599C16.86 64.9598 15.9074 64.8688 15.0086 65.1031C14.1099 65.3374 13.3229 65.8819 12.7868 66.6403C12.2506 67.3987 11.9998 68.3222 12.0787 69.2476C12.1575 70.173 12.561 71.0408 13.2177 71.6975C13.8745 72.3543 14.7422 72.7577 15.6676 72.8366C16.5931 72.9154 17.5166 72.6646 18.275 72.1285C19.0334 71.5923 19.5778 70.8053 19.8121 69.9066C20.0464 69.0079 19.9555 68.0552 19.5554 67.2171L24.367 62.4054L22.5098 60.5496Z" fill="#F7F7F7"/>
<path d="M65.2017 71.6861C65.7105 72.1993 66.3507 72.5626 67.0522 72.7361C67.7536 72.9097 68.4893 72.8869 69.1787 72.6702C69.8681 72.4535 70.4845 72.0513 70.9605 71.5076C71.4365 70.9639 71.7537 70.2997 71.8774 69.5877C72.001 68.8758 71.9264 68.1435 71.6616 67.4711C71.3968 66.7988 70.9521 66.2122 70.3762 65.7758C69.8003 65.3393 69.1153 65.0698 68.3964 64.9966C67.6775 64.9235 66.9523 65.0496 66.3003 65.3612L61.4887 60.5496L59.6328 62.4054L64.4431 67.2171C64.0923 67.9491 63.977 68.7718 64.1128 69.5721C64.2486 70.3723 64.6291 71.1109 65.2017 71.6861Z" fill="#F7F7F7"/>
<path d="M18.7982 14.146C18.2894 13.6328 17.6492 13.2696 16.9478 13.096C16.2463 12.9224 15.5106 12.9452 14.8212 13.1619C14.1318 13.3786 13.5154 13.7808 13.0394 14.3245C12.5634 14.8682 12.2462 15.5324 12.1225 16.2444C11.9989 16.9564 12.0735 17.6886 12.3383 18.361C12.6031 19.0334 13.0478 19.6199 13.6237 20.0564C14.1997 20.4928 14.8846 20.7624 15.6035 20.8355C16.3224 20.9086 17.0476 20.7825 17.6996 20.4709L22.5112 25.2826L24.3671 23.4267L19.5568 18.6151C19.9076 17.8831 20.023 17.0603 19.8871 16.2601C19.7513 15.4598 19.3708 14.7213 18.7982 14.146Z" fill="#F7F7F7"/>
<path d="M43.3125 16.6662V9.86221C44.1882 9.5526 44.9263 8.94337 45.3963 8.14221C45.8662 7.34104 46.0379 6.39953 45.8808 5.48406C45.7237 4.5686 45.2481 3.73814 44.5379 3.13945C43.8278 2.54076 42.9288 2.2124 42 2.2124C41.0712 2.2124 40.1722 2.54076 39.4621 3.13945C38.7519 3.73814 38.2763 4.5686 38.1192 5.48406C37.9621 6.39953 38.1338 7.34104 38.6037 8.14221C39.0737 8.94337 39.8118 9.5526 40.6875 9.86221V16.6662H43.3125Z" fill="#F7F7F7"/>
<path d="M19.6875 42.916C19.6901 47.4474 21.0731 51.8705 23.6523 55.5964C26.2315 59.3222 29.8846 62.1738 34.125 63.7716V67.8535H40.6875V52.8647L32.1563 47.9927C31.9563 47.8773 31.7904 47.7112 31.6752 47.5112C31.56 47.3112 31.4995 47.0843 31.5 46.8535V43.987C30.6243 43.6774 29.8862 43.0681 29.4162 42.267C28.9463 41.4658 28.7746 40.5243 28.9317 39.6088C29.0888 38.6934 29.5644 37.8629 30.2746 37.2642C30.9847 36.6655 31.8837 36.3372 32.8125 36.3372C33.7413 36.3372 34.6403 36.6655 35.3504 37.2642C36.0606 37.8629 36.5362 38.6934 36.6933 39.6088C36.8504 40.5243 36.6787 41.4658 36.2088 42.267C35.7388 43.0681 35.0007 43.6774 34.125 43.987V46.087L40.6875 49.8368V38.737C39.8118 38.4274 39.0737 37.8181 38.6037 37.017C38.1338 36.2158 37.9621 35.2743 38.1192 34.3588C38.2763 33.4434 38.7519 32.6129 39.4621 32.0142C40.1722 31.4155 41.0712 31.0872 42 31.0872C42.9288 31.0872 43.8278 31.4155 44.5379 32.0142C45.2481 32.6129 45.7237 33.4434 45.8808 34.3588C46.0379 35.2743 45.8662 36.2158 45.3963 37.017C44.9263 37.8181 44.1882 38.4274 43.3125 38.737V54.5001L49.875 48.8747V46.612C48.9993 46.3024 48.2612 45.6931 47.7912 44.892C47.3213 44.0908 47.1496 43.1493 47.3067 42.2338C47.4638 41.3184 47.9394 40.4879 48.6496 39.8892C49.3597 39.2905 50.2587 38.9622 51.1875 38.9622C52.1163 38.9622 53.0153 39.2905 53.7254 39.8892C54.4356 40.4879 54.9112 41.3184 55.0683 42.2338C55.2254 43.1493 55.0537 44.0908 54.5838 44.892C54.1138 45.6931 53.3757 46.3024 52.5 46.612V49.4785C52.4998 49.6678 52.4587 49.8549 52.3794 50.0269C52.3001 50.1988 52.1845 50.3516 52.0406 50.4747L43.3125 57.9572V67.8535H49.875V63.7716C53.6812 62.3332 57.0214 59.8811 59.534 56.6806C62.0465 53.4801 63.6357 49.6533 64.1293 45.6144C64.623 41.5756 64.0024 37.4786 62.3348 33.7671C60.6671 30.0557 58.0159 26.8712 54.6682 24.5583C51.3206 22.2455 47.404 20.8926 43.3425 20.646C39.2811 20.3994 35.2296 21.2685 31.6267 23.1593C28.0238 25.0501 25.0068 27.8905 22.9023 31.3729C20.7978 34.8553 19.6861 38.8471 19.6875 42.916Z" fill="#F7F7F7"/>
</svg>
