<svg width="20" height="19" viewBox="0 0 20 19" fill="none" xmlns="http://www.w3.org/2000/svg">
<path d="M8.80046 0.998967C9.27447 -0.0217111 10.7255 -0.0217109 11.1995 0.998967L13.0898 5.06929C13.2825 5.48426 13.676 5.77015 14.1302 5.82519L18.5855 6.36516C19.7027 6.50056 20.1511 7.8806 19.3268 8.64682L16.0398 11.7024C15.7047 12.0139 15.5544 12.4765 15.6424 12.9255L16.5056 17.3295C16.7221 18.4339 15.5482 19.2868 14.5648 18.7396L10.643 16.5578C10.2432 16.3353 9.75681 16.3353 9.35699 16.5578L5.43524 18.7396C4.45182 19.2868 3.27789 18.4339 3.49435 17.3295L4.35756 12.9255C4.44556 12.4765 4.29526 12.0139 3.96016 11.7024L0.673177 8.64682C-0.151069 7.8806 0.297333 6.50056 1.41453 6.36516L5.86977 5.82519C6.32398 5.77015 6.71747 5.48426 6.91018 5.06929L8.80046 0.998967Z" fill="#FFCC00"/>
</svg>
