<svg width="33" height="33" viewBox="0 0 33 33" fill="none" xmlns="http://www.w3.org/2000/svg">
<rect width="32.9997" height="32.9997" rx="16.4999" fill="#1C1C1C"/>
<path d="M16.4999 10C18.266 10 18.4863 10.0065 19.1792 10.039C19.8715 10.0715 20.3427 10.18 20.7574 10.3412C21.1864 10.5063 21.5478 10.7299 21.9092 11.0907C22.2397 11.4156 22.4955 11.8087 22.6587 12.2425C22.8192 12.6565 22.9284 13.1284 22.9609 13.8207C22.9914 14.5136 22.9999 14.7339 22.9999 16.4999C22.9999 18.266 22.9934 18.4863 22.9609 19.1792C22.9284 19.8715 22.8192 20.3427 22.6587 20.7574C22.4959 21.1915 22.2401 21.5846 21.9092 21.9092C21.5842 22.2396 21.1912 22.4953 20.7574 22.6587C20.3434 22.8192 19.8715 22.9284 19.1792 22.9609C18.4863 22.9914 18.266 22.9999 16.4999 22.9999C14.7339 22.9999 14.5136 22.9934 13.8207 22.9609C13.1284 22.9284 12.6572 22.8192 12.2425 22.6587C11.8085 22.4958 11.4154 22.24 11.0907 21.9092C10.7601 21.5843 10.5044 21.1913 10.3412 20.7574C10.18 20.3434 10.0715 19.8715 10.039 19.1792C10.0084 18.4863 10 18.266 10 16.4999C10 14.7339 10.0065 14.5136 10.039 13.8207C10.0715 13.1278 10.18 12.6572 10.3412 12.2425C10.5039 11.8084 10.7597 11.4152 11.0907 11.0907C11.4155 10.76 11.8086 10.5042 12.2425 10.3412C12.6572 10.18 13.1278 10.0715 13.8207 10.039C14.5136 10.0084 14.7339 10 16.4999 10ZM16.4999 13.25C15.638 13.25 14.8114 13.5924 14.2019 14.2019C13.5924 14.8114 13.25 15.638 13.25 16.4999C13.25 17.3619 13.5924 18.1885 14.2019 18.798C14.8114 19.4075 15.638 19.7499 16.4999 19.7499C17.3619 19.7499 18.1885 19.4075 18.798 18.798C19.4075 18.1885 19.7499 17.3619 19.7499 16.4999C19.7499 15.638 19.4075 14.8114 18.798 14.2019C18.1885 13.5924 17.3619 13.25 16.4999 13.25ZM20.7249 13.0875C20.7249 12.872 20.6393 12.6653 20.4869 12.513C20.3346 12.3606 20.1279 12.275 19.9124 12.275C19.6969 12.275 19.4903 12.3606 19.3379 12.513C19.1855 12.6653 19.0999 12.872 19.0999 13.0875C19.0999 13.303 19.1855 13.5096 19.3379 13.662C19.4903 13.8144 19.6969 13.9 19.9124 13.9C20.1279 13.9 20.3346 13.8144 20.4869 13.662C20.6393 13.5096 20.7249 13.303 20.7249 13.0875ZM16.4999 14.55C17.0171 14.55 17.5131 14.7554 17.8788 15.1211C18.2445 15.4868 18.4499 15.9828 18.4499 16.4999C18.4499 17.0171 18.2445 17.5131 17.8788 17.8788C17.5131 18.2445 17.0171 18.4499 16.4999 18.4499C15.9828 18.4499 15.4868 18.2445 15.1211 17.8788C14.7554 17.5131 14.55 17.0171 14.55 16.4999C14.55 15.9828 14.7554 15.4868 15.1211 15.1211C15.4868 14.7554 15.9828 14.55 16.4999 14.55Z" fill="white"/>
</svg>
