<svg width="33" height="33" viewBox="0 0 33 33" fill="none" xmlns="http://www.w3.org/2000/svg">
<rect width="32.9995" height="32.9999" rx="16.4998" fill="#1C1C1C"/>
<path d="M22.9988 23V18.2388C22.9988 15.8988 22.4951 14.1113 19.7651 14.1113C18.4489 14.1113 17.5714 14.8263 17.2139 15.5088H17.1814V14.3226H14.5977V23H17.2951V18.6938C17.2951 17.5563 17.5064 16.4676 18.9039 16.4676C20.2851 16.4676 20.3014 17.7513 20.3014 18.7588V22.9838H22.9988V23Z" fill="white"/>
<path d="M10.2109 14.3223H12.9084V22.9997H10.2109V14.3223Z" fill="white"/>
<path d="M11.56 10C10.6987 10 10 10.6987 10 11.56C10 12.4212 10.6987 13.1362 11.56 13.1362C12.4212 13.1362 13.12 12.4212 13.12 11.56C13.12 10.6987 12.4212 10 11.56 10Z" fill="white"/>
</svg>
