<svg width="33" height="33" viewBox="0 0 33 33" fill="none" xmlns="http://www.w3.org/2000/svg">
<rect x="-0.00195312" width="32.9997" height="32.9997" rx="16.4999" fill="#1C1C1C"/>
<path d="M22.7009 13.6333C22.9979 14.679 22.9979 16.8619 22.9979 16.8619C22.9979 16.8619 22.9979 19.0448 22.7009 20.0905C22.5358 20.6685 22.0529 21.1232 21.4412 21.277C20.3304 21.5563 16.498 21.5563 16.498 21.5563C16.498 21.5563 12.6676 21.5563 11.5548 21.277C10.9405 21.1209 10.4582 20.6667 10.2951 20.0905C9.99805 19.0448 9.99805 16.8619 9.99805 16.8619C9.99805 16.8619 9.99805 14.679 10.2951 13.6333C10.4602 13.0553 10.9431 12.6005 11.5548 12.4468C12.6676 12.1675 16.498 12.1675 16.498 12.1675C16.498 12.1675 20.3304 12.1675 21.4412 12.4468C22.0555 12.6029 22.5377 13.0571 22.7009 13.6333ZM15.198 18.9157L19.098 16.8619L15.198 14.8081V18.9157Z" fill="white"/>
</svg>
